<?xml version="1.0" encoding="UTF-8" standalone="no"?>
<svg
   width="486.61777"
   height="82.37796"
   version="1.1"
   id="svg2"
   sodipodi:docname="wave2.svg"
   inkscape:version="1.3.2 (091e20e, 2023-11-25, custom)"
   inkscape:export-filename="wave-1-1.svg"
   inkscape:export-xdpi="96"
   inkscape:export-ydpi="96"
   xmlns:inkscape="http://www.inkscape.org/namespaces/inkscape"
   xmlns:sodipodi="http://sodipodi.sourceforge.net/DTD/sodipodi-0.dtd"
   xmlns="http://www.w3.org/2000/svg"
   xmlns:svg="http://www.w3.org/2000/svg">
  <sodipodi:namedview
     id="namedview1"
     pagecolor="#505050"
     bordercolor="#eeeeee"
     borderopacity="1"
     inkscape:showpageshadow="0"
     inkscape:pageopacity="0"
     inkscape:pagecheckerboard="0"
     inkscape:deskcolor="#505050"
     inkscape:zoom="2.8284271"
     inkscape:cx="197.63634"
     inkscape:cy="49.674251"
     inkscape:window-width="1920"
     inkscape:window-height="1057"
     inkscape:window-x="1912"
     inkscape:window-y="-8"
     inkscape:window-maximized="1"
     inkscape:current-layer="g1"
     showguides="true" />
  <defs
     id="defs2" />
  <g
     id="g1"
     inkscape:export-filename="wave-1-1.svg"
     inkscape:export-xdpi="96"
     inkscape:export-ydpi="96"
     transform="translate(-0.82239568,-4.0610995)">
    <path
       fill="url(#a)"
       fill-rule="evenodd"
       d="m 482.03955,36.772852 c -33.9697,9.76076 -98.89361,27.455242 -169.51584,9.284951 C 260.25865,32.610602 194.95347,5.274193 148.2824,4.175313 101.61133,3.0764331 32.588826,10.0097 0.82239567,20.54455 L 41.999999,70.08721 487.44016,86.439054 c 0,0 -5.402,-40.603702 -5.402,-49.666202 z"
       id="path2-7-3"
       style="display:inline;fill:#4e3718;fill-opacity:1;stroke-width:0.3125"
       sodipodi:nodetypes="cszccccc"
       inkscape:export-filename="wave-3-2.svg"
       inkscape:export-xdpi="96"
       inkscape:export-ydpi="96" />
    <path
       fill="url(#a)"
       fill-rule="evenodd"
       d="M 499.99844,21.024716 C 463.52874,33.285484 388.63674,88.81572 266.01451,43.145429 215.44109,24.309504 174.87378,4.6779984 128.20271,3.5791194 81.53164,2.4802404 31.788519,10.268899 0.02209469,20.803745 L -2.4e-6,288.08721 H 500 c 0,0 -0.003,-257.999994 -0.003,-267.062494 z"
       id="path2-7"
       style="display:inline;fill:#efa52e;fill-opacity:1;stroke-width:0.3125"
       sodipodi:nodetypes="cszccccc"
       inkscape:export-filename="wave-1-1.svg"
       inkscape:export-xdpi="96"
       inkscape:export-ydpi="96" />
    <path
       fill="url(#a)"
       fill-rule="evenodd"
       d="M 499.99844,40.818876 C 468.52874,66.579644 388.63674,108.60988 266.01451,62.939589 215.44109,44.103664 137.51763,1.462991 76.219959,0.01972597 44.175497,-0.73476683 28.766425,20.28403 0,40.818876 V 289.88137 h 500 c 0,0 -0.003,-239.999994 -0.003,-249.062494 z"
       id="path2"
       style="display:none;fill:#f68b00;fill-opacity:1;stroke-width:0.3125"
       sodipodi:nodetypes="cssccccc" />
  </g>
</svg>
