<?xml version="1.0" encoding="UTF-8" standalone="no"?>
<svg
   width="1600"
   height="198"
   version="1.1"
   id="svg2"
   xmlns="http://www.w3.org/2000/svg"
   xmlns:svg="http://www.w3.org/2000/svg">
  <defs
     id="defs2" />
  <path
     fill="url(#a)"
     fill-rule="evenodd"
     d="m 1438.7613,134.5841 c -310.995,0 -409.893,-121.249993 -810.99511,-120.999993 -400,0 -500,120.999993 -789,120.999993 v 77 H 1438.7663 c 0,0 -0.01,-48 -0.01,-77 z"
     id="path2-0"
     style="fill:#af6300;fill-opacity:1" />
  <path
     fill="url(#a)"
     fill-rule="evenodd"
     d="m 1757.007,131.77089 c -310.995,0 -409.893,-121.249991 -810.99514,-120.999991 -400,0 -500,120.999991 -789,120.999991 v 77 H 1757.012 c 0,0 -0.01,-48 -0.01,-77 z"
     id="path2-0-1"
     style="fill:#af6300;fill-opacity:1" />
  <path
     fill="url(#a)"
     fill-rule="evenodd"
     d="M 1599.995,121 C 1289,121 1190.102,-0.25 789,0 389,0 289,121 0,121 v 77 h 1600 c 0,0 -0.01,-48 -0.01,-77 z"
     id="path2"
     style="fill:#f68b00;fill-opacity:1" />
</svg>
