<?xml version="1.0" encoding="UTF-8" standalone="no"?>
<svg
   width="1600"
   height="616.90955"
   version="1.1"
   id="svg2"
   xmlns="http://www.w3.org/2000/svg"
   xmlns:svg="http://www.w3.org/2000/svg">
  <defs
     id="defs2" />
  <path
     fill="url(#a)"
     fill-rule="evenodd"
     d="M 1599.4693,320.73291 C 1441.8494,360.68839 1352.9585,388.22912 1151.3968,302.20972 949.88577,216.21189 680.33827,-0.12492587 479.81236,5.4128752e-5 79.812367,5.4128752e-5 207.28475,198.42089 41.999977,303.90955 v 117 H 1600 c 0,0 -0.01,-44.36441 -0.01,-73.36441 z"
     id="path2-8"
     style="fill:#4e3718;fill-opacity:1" />
  <path
     fill="url(#a)"
     fill-rule="evenodd"
     d="m 1599.995,319.90955 c -157.6199,39.95548 -289.0365,84.31957 -490.5982,-1.69983 C 907.88576,232.2119 638.33825,15.875074 437.81239,16.000054 37.812394,16.000054 209.4461,264.89097 0,319.90955 v 297 h 1600 c 0,0 -0.01,-268 -0.01,-297 z"
     id="path2"
     style="fill:#efa52e;fill-opacity:1" />
</svg>
