<?xml version="1.0" encoding="UTF-8" standalone="no"?>
<svg
   viewBox="0 0 2880 320"
   preserveAspectRatio="none"
   version="1.1"
   id="svg1"
   sodipodi:docname="wave.svg"
   inkscape:version="1.3.2 (091e20e, 2023-11-25, custom)"
   xmlns:inkscape="http://www.inkscape.org/namespaces/inkscape"
   xmlns:sodipodi="http://sodipodi.sourceforge.net/DTD/sodipodi-0.dtd"
   xmlns="http://www.w3.org/2000/svg"
   xmlns:svg="http://www.w3.org/2000/svg">
  <defs
     id="defs1" />
  <sodipodi:namedview
     id="namedview1"
     pagecolor="#505050"
     bordercolor="#eeeeee"
     borderopacity="1"
     inkscape:showpageshadow="0"
     inkscape:pageopacity="0"
     inkscape:pagecheckerboard="0"
     inkscape:deskcolor="#505050"
     inkscape:zoom="0.1767767"
     inkscape:cx="1284.1059"
     inkscape:cy="-472.34733"
     inkscape:window-width="1920"
     inkscape:window-height="1057"
     inkscape:window-x="1912"
     inkscape:window-y="-8"
     inkscape:window-maximized="1"
     inkscape:current-layer="svg1" />
  <path
     fill="#0099ff"
     fill-opacity="1"
     d="M 0.00490169,223.9707 C 32.860497,220.19238 43.660464,211.29516 64.384004,201.63254 c 39.048556,-20.31699 63.423686,-22.99712 81.789046,-26.2809 121.00001,3.3 93.65508,27.63274 213.65508,16.63274 120,-11 240,-85 360,-96.000005 C 839.82813,84.984375 960,139 1080,170.7 1200,203 1358.0019,99.756679 1440.0019,95.956679 L 1440,320 h -60 -300 -360 l -360.17187,-0.0156 h -300.000005 -60 z M 1440,96 c 111.0541,2.257976 190.2546,111.56 360,96 120,-11 240,-85 360,-96 120,-11 240,43 360,74.7 120,32.3 240,42.3 300,48 l 60,5.3 v 96 h -60 -300 -360 -360 -360 z"
     id="path1"
     sodipodi:nodetypes="cccsscccccccccccsscccccccccc" />
</svg>
